<svg xmlns="http://www.w3.org/2000/svg" width="500" height="500" viewBox="0 0 500 500">
<g>
<path d="M 499.00 226.75 C499.00,229.09 499.23,231.00 499.50,231.00 C499.77,231.00 500.00,179.02 500.00,115.50 L 500.00 500.00 L 0.00 500.00 L 0.00 0.00 L 500.00 0.00 L 380.25 0.14 C305.88,0.23 264.42,0.60 270.85,1.13 C303.52,3.81 333.18,12.18 362.58,27.00 C387.52,39.57 404.59,51.76 424.86,71.46 C457.39,103.07 480.88,143.39 492.09,186.84 C495.45,199.89 499.00,220.37 499.00,226.75 ZM 0.14 120.25 C0.22,191.27 0.61,236.41 1.10,230.50 C4.28,191.65 17.64,150.45 37.17,119.30 C80.08,50.85 149.64,8.31 230.48,1.08 C235.65,0.62 188.35,0.22 119.75,0.14 L 0.00 0.00 ZM 0.14 379.75 L 0.00 500.00 L 116.25 499.89 C217.32,499.80 231.09,499.61 221.67,498.47 C165.38,491.66 113.05,466.11 72.91,425.81 C67.05,419.92 59.45,411.63 56.02,407.37 C24.54,368.24 4.94,319.05 1.07,269.50 C0.63,263.94 0.22,312.88 0.14,379.75 ZM 279.00 498.50 C270.00,499.60 285.09,499.80 384.25,499.89 L 500.00 500.00 L 499.87 384.25 C499.79,317.14 499.39,271.86 498.91,276.50 C497.76,287.70 496.32,295.41 492.42,311.21 C475.24,380.78 428.92,438.83 363.69,472.55 C336.08,486.82 310.47,494.67 279.00,498.50 ZM 238.02 341.30 C239.23,342.15 240.80,342.63 241.50,342.36 C245.26,340.92 268.00,306.66 268.00,302.41 C268.01,300.39 279.70,279.98 280.84,280.03 C281.20,280.04 283.08,281.41 285.00,283.07 C292.81,289.79 304.12,298.02 315.00,304.88 C339.56,320.39 392.44,343.93 400.21,342.82 C401.46,342.65 402.63,341.73 402.80,340.80 C403.17,338.85 398.26,336.18 380.00,328.42 C354.14,317.43 314.85,296.55 306.22,289.22 L 303.50 286.90 L 307.50 287.50 C316.38,288.84 345.57,289.18 352.95,288.04 C398.46,281.00 430.30,255.98 435.14,223.44 C438.22,202.71 427.81,183.53 408.47,174.33 C396.10,168.44 383.75,165.86 365.17,165.28 C333.02,164.26 299.21,169.60 278.50,178.95 C270.50,182.56 269.19,184.19 272.00,187.00 C273.17,188.17 274.43,188.96 274.81,188.76 C285.32,183.22 301.75,178.45 321.39,175.26 C336.23,172.85 379.83,172.84 389.23,175.24 C404.64,179.18 416.03,186.86 421.04,196.70 C422.99,200.52 423.56,203.38 423.84,210.75 C424.44,226.35 420.12,236.77 407.65,249.82 C393.33,264.81 376.53,273.49 352.00,278.58 C332.41,282.63 308.54,281.54 293.46,275.90 C290.56,274.81 287.67,273.31 287.05,272.56 C285.74,270.98 289.55,264.79 322.31,215.34 C333.67,198.20 343.51,182.97 344.19,181.48 C345.26,179.13 345.17,178.60 343.52,177.39 C342.47,176.63 340.79,176.00 339.78,176.00 C337.25,176.00 330.46,183.03 322.12,194.27 C315.12,203.71 291.19,239.71 280.94,256.22 L 275.53 264.94 L 271.72 261.23 C269.63,259.18 267.66,256.50 267.35,255.26 C267.01,253.91 266.02,253.00 264.89,253.00 C261.00,253.00 263.62,260.69 269.73,267.18 L 272.25 269.87 L 268.28 276.68 C266.09,280.43 260.11,290.70 254.97,299.50 C244.95,316.69 237.38,331.87 236.40,336.73 C235.93,339.12 236.26,340.07 238.02,341.30 ZM 62.05 341.33 C63.67,342.45 64.83,342.63 66.12,341.94 C69.88,339.92 92.00,306.31 92.00,302.59 C92.01,300.31 103.67,280.00 104.98,280.00 C105.42,280.00 107.97,281.94 110.64,284.30 C129.33,300.86 165.39,321.51 199.00,334.89 C219.28,342.96 227.00,344.55 227.00,340.65 C227.00,338.66 224.27,337.12 210.00,331.06 C193.31,323.97 165.04,310.31 153.69,303.85 C142.11,297.25 125.80,286.87 126.28,286.39 C126.48,286.19 130.14,286.70 134.41,287.51 C144.51,289.45 168.87,289.46 179.80,287.54 C224.27,279.71 254.21,255.53 259.20,223.42 C262.38,202.99 251.78,183.52 232.49,174.34 C228.64,172.51 220.99,169.82 215.49,168.37 C192.71,162.37 146.11,164.82 117.50,173.52 C101.58,178.37 93.54,182.63 94.69,185.62 C95.57,187.92 98.91,189.32 100.45,188.04 C105.61,183.76 132.63,176.82 153.65,174.38 C170.90,172.38 204.00,172.94 213.74,175.40 C229.64,179.41 240.61,187.29 245.52,198.22 C247.80,203.30 248.30,205.86 248.33,212.46 C248.49,249.47 204.02,280.94 151.50,280.97 C142.59,280.97 135.67,280.38 129.50,279.09 C120.49,277.20 111.74,274.01 110.63,272.20 C109.95,271.11 121.52,252.73 148.24,212.47 C169.92,179.81 170.18,179.33 167.52,177.39 C164.41,175.12 162.18,175.76 157.70,180.25 C149.58,188.37 130.76,215.34 108.50,250.73 L 99.55 264.97 L 95.73 261.24 C93.63,259.19 91.66,256.50 91.35,255.26 C90.57,252.15 87.00,252.19 87.00,255.30 C87.00,257.77 91.57,265.61 94.33,267.87 C95.25,268.63 96.00,269.64 96.00,270.13 C96.00,270.62 93.59,274.95 90.64,279.76 C74.19,306.59 61.74,330.06 60.40,336.73 C59.92,339.13 60.26,340.07 62.05,341.33 Z" fill="rgb(0,0,0)"/>
<path d="M 143.98 24.14 C158.28,17.38 173.24,11.97 188.65,8.04 C195.45,6.30 200.98,5.14 209.60,3.77 C186.51,7.68 164.51,14.54 143.98,24.14 ZM 6.95 306.84 C13.23,333.28 23.86,358.90 38.20,382.14 C24.67,360.47 14.52,336.71 8.03,311.35 C7.67,309.96 7.31,308.45 6.95,306.84 ZM 0.73 224.73 C0.94,228.24 1.21,227.24 1.60,224.00 C4.05,203.17 8.82,183.01 15.76,163.96 C8.05,185.37 2.91,208.32 1.10,230.50 C0.97,232.08 0.85,230.00 0.73,224.73 ZM 308.29 7.01 C328.00,11.63 346.13,18.45 364.94,28.15 C375.98,33.84 385.52,39.52 394.56,45.91 C384.91,39.10 374.67,33.10 362.58,27.00 C344.78,18.03 326.89,11.42 308.29,7.01 ZM 276.34 0.73 C272.70,0.93 273.70,1.21 277.00,1.60 C281.35,2.12 285.60,2.70 289.76,3.37 C283.56,2.40 277.26,1.66 270.85,1.13 C269.06,0.98 271.00,0.85 276.34,0.73 ZM 220.54 2.16 C222.83,1.83 225.30,1.49 228.00,1.13 C229.88,0.87 221.59,0.65 204.79,0.48 C223.24,0.65 232.97,0.86 230.48,1.08 C227.14,1.38 223.83,1.74 220.54,2.16 ZM 0.14 379.75 C0.16,367.06 0.18,355.01 0.22,343.86 C0.19,355.98 0.17,369.07 0.15,382.75 L 0.00 500.00 ZM 0.89 270.23 C0.95,269.00 1.01,268.73 1.07,269.50 C1.25,271.83 1.47,274.17 1.72,276.50 C1.43,274.44 1.16,272.34 0.89,270.23 ZM 47.84 103.55 C50.99,99.23 54.28,95.02 57.69,90.92 C54.29,95.01 51.01,99.22 47.84,103.55 ZM 69.72 422.55 C70.81,423.68 71.89,424.78 72.91,425.81 C71.83,424.73 70.77,423.64 69.72,422.55 Z" fill="rgb(110,110,110)"/>
<path d="M 3.70 209.45 C6.92,189.85 12.42,170.94 19.98,153.02 C18.50,156.61 17.09,160.27 15.76,163.96 C10.45,178.54 6.41,193.77 3.70,209.45 ZM 345.18 0.21 C307.40,0.35 279.80,0.61 274.37,0.91 C274.72,0.84 275.36,0.78 276.34,0.73 C286.87,0.49 310.65,0.31 345.18,0.21 ZM 222.38 1.90 C224.69,1.54 226.54,1.22 227.50,1.03 C228.74,0.78 213.35,0.53 188.31,0.36 C194.37,0.40 199.89,0.44 204.79,0.48 C221.59,0.65 229.88,0.87 228.00,1.13 C226.01,1.40 224.14,1.65 222.38,1.90 ZM 39.40 384.06 C29.85,369.10 21.97,353.16 15.84,336.45 C21.75,352.50 29.24,367.78 38.20,382.14 C38.60,382.78 39.00,383.42 39.40,384.06 ZM 0.89 270.23 C1.16,272.34 1.43,274.44 1.72,276.50 C1.74,276.73 1.77,276.97 1.79,277.21 C1.41,274.68 1.08,272.58 0.85,271.21 C0.86,270.83 0.87,270.51 0.89,270.23 ZM 274.23 1.17 C275.03,1.29 276.05,1.45 277.22,1.63 L 277.00 1.60 C275.61,1.44 274.63,1.29 274.23,1.17 ZM 1.15 226.77 C1.29,226.00 1.43,225.10 1.58,224.12 C1.42,225.47 1.28,226.41 1.15,226.77 ZM 202.25 5.02 C204.79,4.54 207.31,4.11 209.79,3.74 L 209.60 3.77 C206.89,4.20 204.49,4.61 202.25,5.02 ZM 143.26 24.47 C143.77,24.23 144.29,23.99 144.80,23.75 C144.53,23.88 144.25,24.01 143.98,24.14 C143.74,24.25 143.50,24.36 143.26,24.47 Z" fill="rgb(170,170,170)"/>
<path d="M 0.08 384.25 C0.12,320.59 0.32,268.95 0.52,269.50 C0.71,270.05 1.80,277.02 2.93,285.00 C10.58,338.81 34.81,387.57 72.91,425.81 C113.05,466.11 165.38,491.66 221.67,498.47 C231.09,499.61 217.32,499.80 116.25,499.89 L 0.00 500.00 L 0.08 384.25 ZM 279.00 498.50 C310.47,494.67 336.08,486.82 363.69,472.55 C428.92,438.83 475.24,380.78 492.42,311.21 C496.32,295.41 497.76,287.70 498.91,276.50 C499.39,271.86 499.79,317.14 499.87,384.25 L 500.00 500.00 L 384.25 499.89 C285.09,499.80 270.00,499.60 279.00,498.50 ZM 62.05 341.33 C60.26,340.07 59.92,339.13 60.40,336.73 C61.74,330.06 74.19,306.59 90.64,279.76 C93.59,274.95 96.00,270.62 96.00,270.13 C96.00,269.64 95.25,268.63 94.33,267.87 C91.57,265.61 87.00,257.77 87.00,255.30 C87.00,252.19 90.57,252.15 91.35,255.26 C91.66,256.50 93.63,259.19 95.73,261.24 L 99.55 264.97 L 108.50 250.73 C130.76,215.34 149.58,188.37 157.70,180.25 C162.18,175.76 164.41,175.12 167.52,177.39 C170.18,179.33 169.92,179.81 148.24,212.47 C121.52,252.73 109.95,271.11 110.63,272.20 C111.74,274.01 120.49,277.20 129.50,279.09 C135.67,280.38 142.59,280.97 151.50,280.97 C204.02,280.94 248.49,249.47 248.33,212.46 C248.30,205.86 247.80,203.30 245.52,198.22 C240.61,187.29 229.64,179.41 213.74,175.40 C204.00,172.94 170.90,172.38 153.65,174.38 C132.63,176.82 105.61,183.76 100.45,188.04 C98.91,189.32 95.57,187.92 94.69,185.62 C93.54,182.63 101.58,178.37 117.50,173.52 C146.11,164.82 192.71,162.37 215.49,168.37 C220.99,169.82 228.64,172.51 232.49,174.34 C251.78,183.52 262.38,202.99 259.20,223.42 C254.21,255.53 224.27,279.71 179.80,287.54 C168.87,289.46 144.51,289.45 134.41,287.51 C130.14,286.70 126.48,286.19 126.28,286.39 C125.80,286.87 142.11,297.25 153.69,303.85 C165.04,310.31 193.31,323.97 210.00,331.06 C224.27,337.12 227.00,338.66 227.00,340.65 C227.00,344.55 219.28,342.96 199.00,334.89 C165.39,321.51 129.33,300.86 110.64,284.30 C107.97,281.94 105.42,280.00 104.98,280.00 C103.67,280.00 92.01,300.31 92.00,302.59 C92.00,306.31 69.88,339.92 66.12,341.94 C64.83,342.63 63.67,342.45 62.05,341.33 ZM 238.02 341.30 C236.26,340.07 235.93,339.12 236.40,336.73 C237.38,331.87 244.95,316.69 254.97,299.50 C260.11,290.70 266.09,280.43 268.28,276.68 L 272.25 269.87 L 269.73 267.18 C263.62,260.69 261.00,253.00 264.89,253.00 C266.02,253.00 267.01,253.91 267.35,255.26 C267.66,256.50 269.63,259.18 271.72,261.23 L 275.53 264.94 L 280.94 256.22 C291.19,239.71 315.12,203.71 322.12,194.27 C330.46,183.03 337.25,176.00 339.78,176.00 C340.79,176.00 342.47,176.63 343.52,177.39 C345.17,178.60 345.26,179.13 344.19,181.48 C343.51,182.97 333.67,198.20 322.31,215.34 C289.55,264.79 285.74,270.98 287.05,272.56 C287.67,273.31 290.56,274.81 293.46,275.90 C308.54,281.54 332.41,282.63 352.00,278.58 C376.53,273.49 393.33,264.81 407.65,249.82 C420.12,236.77 424.44,226.35 423.84,210.75 C423.56,203.38 422.99,200.52 421.04,196.70 C416.03,186.86 404.64,179.18 389.23,175.24 C379.83,172.84 336.23,172.85 321.39,175.26 C301.75,178.45 285.32,183.22 274.81,188.76 C274.43,188.96 273.17,188.17 272.00,187.00 C269.19,184.19 270.50,182.56 278.50,178.95 C299.21,169.60 333.02,164.26 365.17,165.28 C383.75,165.86 396.10,168.44 408.47,174.33 C427.81,183.53 438.22,202.71 435.14,223.44 C430.30,255.98 398.46,281.00 352.95,288.04 C345.57,289.18 316.38,288.84 307.50,287.50 L 303.50 286.90 L 306.22 289.22 C314.85,296.55 354.14,317.43 380.00,328.42 C398.26,336.18 403.17,338.85 402.80,340.80 C402.63,341.73 401.46,342.65 400.21,342.82 C392.44,343.93 339.56,320.39 315.00,304.88 C304.12,298.02 292.81,289.79 285.00,283.07 C283.08,281.41 281.20,280.04 280.84,280.03 C279.70,279.98 268.01,300.39 268.00,302.41 C268.00,306.66 245.26,340.92 241.50,342.36 C240.80,342.63 239.23,342.15 238.02,341.30 ZM 499.00 226.75 C499.00,220.37 495.45,199.89 492.09,186.84 C480.88,143.39 457.39,103.07 424.86,71.46 C404.59,51.76 387.52,39.57 362.58,27.00 C338.55,14.89 314.02,6.98 289.50,3.44 C283.45,2.57 276.25,1.49 273.50,1.05 C270.75,0.60 320.59,0.18 384.25,0.12 L 500.00 0.00 L 500.00 115.50 C500.00,179.02 499.77,231.00 499.50,231.00 C499.23,231.00 499.00,229.09 499.00,226.75 ZM 0.00 115.17 L 0.00 0.00 L 115.75 0.11 C179.41,0.17 229.70,0.58 227.50,1.03 C225.30,1.48 218.32,2.55 212.00,3.42 C188.06,6.71 161.13,15.33 137.71,27.20 C63.63,64.72 13.24,135.64 2.53,217.43 C1.67,224.00 0.75,229.59 0.48,229.85 C0.22,230.12 0.00,178.51 0.00,115.17 Z" fill="rgb(253,253,253)"/>
</g>
</svg>